<svg width="43" height="43" viewBox="0 0 43 43" fill="none" xmlns="http://www.w3.org/2000/svg">
<g opacity="0.5">
<path d="M21.5002 14.3333V28.6666M10.7502 28.6666H32.2502M10.7502 28.6666L13.4325 35.3725C13.9767 36.7329 15.2943 37.6249 16.7595 37.6249H26.2407C27.706 37.6249 29.0237 36.7329 29.5679 35.3725L32.2502 28.6666M10.7502 28.6666H34.0418H32.2502M10.7502 28.6666H8.9585M29.5035 20.9945C32.1547 19.4639 32.8987 16.7899 33.1071 15.3477C33.1954 14.735 32.8652 14.1629 32.2905 13.9332C30.9372 13.3925 28.2494 12.6999 25.5984 14.2305C22.9473 15.7611 22.2032 18.4351 21.9948 19.8774C21.9063 20.4902 22.2365 21.0621 22.8115 21.2917C24.1647 21.8325 26.8524 22.5251 29.5035 20.9945ZM14.3035 12.5717C12.1955 10.4636 12.1593 7.76368 12.3249 6.34177C12.3965 5.72691 12.8638 5.25961 13.4786 5.18799C14.9005 5.02241 17.6005 5.0586 19.7085 7.16662C21.8166 9.27462 21.8528 11.9746 21.687 13.3965C21.6155 14.0114 21.1483 14.4786 20.5334 14.5503C19.1115 14.7159 16.4115 14.6797 14.3035 12.5717Z" stroke="black" stroke-width="2" stroke-linecap="round"/>
</g>
</svg>
