<svg width="51" height="47" viewBox="0 0 51 47" fill="none" xmlns="http://www.w3.org/2000/svg">
<circle cx="30.6375" cy="19.9767" r="13" transform="rotate(-12.174 30.6375 19.9767)" stroke="white" stroke-width="2"/>
<path d="M50.0347 1.05346C50.0375 0.501182 49.5921 0.0512036 49.0398 0.0484053L40.0399 0.00280322C39.4876 5.00756e-06 39.0377 0.445446 39.0349 0.997724C39.0321 1.55 39.4775 1.99998 40.0298 2.00278L48.0297 2.04331L47.9891 10.0432C47.9863 10.5955 48.4318 11.0455 48.9841 11.0483C49.5363 11.0511 49.9863 10.6056 49.9891 10.0533L50.0347 1.05346ZM48.3312 0.337712L38.7319 9.84021L40.1389 11.2616L49.7382 1.75907L48.3312 0.337712Z" fill="white"/>
<circle cx="14" cy="18.7214" r="13" stroke="white" stroke-width="2"/>
<path d="M14 32.2214L14 45.7214" stroke="white" stroke-width="2" stroke-linecap="round"/>
<path d="M7 38.7214H21" stroke="white" stroke-width="2" stroke-linecap="round"/>
</svg>
