<svg width="53" height="53" viewBox="0 0 53 53" fill="none" xmlns="http://www.w3.org/2000/svg">
<path d="M41.9584 22.6679C41.9584 28.9532 34.1793 39.3624 29.658 44.8817C28.0037 46.901 24.9964 46.901 23.3422 44.8817C18.8208 39.3624 11.0417 28.9532 11.0417 22.6679C11.0417 13.8077 17.9627 6.62501 26.5001 6.62501C35.0375 6.62501 41.9584 13.8077 41.9584 22.6679Z" stroke="#15B167" stroke-width="2" stroke-linecap="round"/>
<path d="M32.2426 22.0836C32.2426 25.2545 29.6719 27.8252 26.501 27.8252C23.33 27.8252 20.7593 25.2545 20.7593 22.0836C20.7593 18.9124 23.33 16.3418 26.501 16.3418C29.6719 16.3418 32.2426 18.9124 32.2426 22.0836Z" stroke="#15B167" stroke-width="2" stroke-linecap="round"/>
</svg>
