<svg width="24" height="24" viewBox="0 0 24 24" fill="none" xmlns="http://www.w3.org/2000/svg">
<path d="M20.5123 11.2213C21.2956 10.6517 20.8927 9.41247 19.9242 9.41247H16.1195C15.2467 9.41247 14.4747 8.84646 14.2121 8.01406L12.9536 4.02391C12.6596 3.09164 11.3403 3.09164 11.0462 4.02391L9.78773 8.01406C9.52519 8.84646 8.75317 9.41247 7.88035 9.41247H4.07565C3.10712 9.41247 2.70421 10.6517 3.48756 11.2213L6.87612 13.6852C7.60843 14.2176 7.89166 15.1757 7.56663 16.0207L6.09662 19.8426C5.73898 20.7725 6.81245 21.5963 7.61814 21.0103L10.8236 18.6791C11.5249 18.169 12.475 18.169 13.1763 18.6791L16.3817 21.0103C17.1874 21.5963 18.2609 20.7725 17.9032 19.8426L16.4332 16.0207C16.1082 15.1757 16.3914 14.2176 17.1237 13.6852L20.5123 11.2213Z" fill="#15B167"/>
</svg>
