<svg width="43" height="43" viewBox="0 0 43 43" fill="none" xmlns="http://www.w3.org/2000/svg">
<g opacity="0.5">
<path d="M11.7997 22.6838L9.75444 14.0936M18.567 24.433L31.5668 11.4333M27.0542 33.1458L20.2458 31.3542M20.6042 29.5625C20.6042 33.5205 17.3955 36.7292 13.4375 36.7292C9.47946 36.7292 6.27083 33.5205 6.27083 29.5625C6.27083 25.6045 9.47946 22.3958 13.4375 22.3958C17.3955 22.3958 20.6042 25.6045 20.6042 29.5625ZM12.5417 10.75C12.5417 12.729 10.9374 14.3333 8.95833 14.3333C6.97931 14.3333 5.375 12.729 5.375 10.75C5.375 8.77098 6.97931 7.16667 8.95833 7.16667C10.9374 7.16667 12.5417 8.77098 12.5417 10.75ZM37.625 8.95833C37.625 10.9374 36.0207 12.5417 34.0417 12.5417C32.0626 12.5417 30.4583 10.9374 30.4583 8.95833C30.4583 6.97931 32.0626 5.375 34.0417 5.375C36.0207 5.375 37.625 6.97931 37.625 8.95833ZM34.0417 34.0417C34.0417 36.0207 32.4374 37.625 30.4583 37.625C28.4793 37.625 26.875 36.0207 26.875 34.0417C26.875 32.0626 28.4793 30.4583 30.4583 30.4583C32.4374 30.4583 34.0417 32.0626 34.0417 34.0417Z" stroke="black" stroke-width="2" stroke-linecap="round"/>
</g>
</svg>
