<svg width="19" height="19" viewBox="0 0 19 19" fill="none" xmlns="http://www.w3.org/2000/svg">
<g clip-path="url(#clip0_314_506)">
<path d="M3.80011 0.504185C4.02245 0.51807 4.23984 0.578864 4.43683 0.682896C4.63373 0.786879 4.80588 0.932015 4.94269 1.1077L7.07452 3.84598C7.33368 4.17918 7.44627 4.6008 7.39191 5.01493L7.3587 5.19168L6.70831 7.79227V7.79325C6.65435 8.01123 6.65726 8.23989 6.7171 8.45633C6.77705 8.67289 6.8926 8.87027 7.05109 9.02958L7.05206 9.03055L9.96906 11.9485L9.97003 11.9495C10.1295 12.1083 10.3273 12.2235 10.5443 12.2835C10.7611 12.3434 10.9899 12.3456 11.2083 12.2913L13.8079 11.6419C14.0393 11.5844 14.2807 11.58 14.514 11.6292C14.7472 11.6784 14.9662 11.7801 15.1546 11.9261V11.9251L17.8929 14.0559C18.64 14.6375 18.7072 15.7415 18.0394 16.4085L16.8118 17.636C16.1002 18.3477 15.075 18.6702 14.1077 18.4114L13.9144 18.3518L13.3431 18.1419C10.5053 17.0539 7.92695 15.3781 5.77863 13.222L5.77765 13.22L5.35284 12.7854C3.26101 10.5806 1.65707 7.95681 0.647766 5.08524C0.289171 4.06467 0.604697 2.94788 1.36359 2.18876L2.59113 0.961216C2.74872 0.803858 2.93846 0.681536 3.14679 0.602818C3.35508 0.524146 3.57789 0.490359 3.80011 0.504185Z" fill="#15B167" stroke="#F7F7F7"/>
</g>
<defs>
<clipPath id="clip0_314_506">
<rect width="19" height="19" fill="white"/>
</clipPath>
</defs>
</svg>
