<svg width="48" height="44" viewBox="0 0 48 44" fill="none" xmlns="http://www.w3.org/2000/svg">
<path opacity="0.5" d="M17.3523 22.0969H17.3744M30.6477 22.0969H30.6699M19.5682 31.0289C20.6761 31.6988 22.2273 32.1454 24 32.1454C25.7727 32.1454 27.3239 31.6988 28.4318 31.0289M39.5113 9.36887C41.5189 11.9048 42.8874 14.8928 43.5 18.0775C44.2493 18.4432 44.8812 19.0142 45.3233 19.7251C45.7655 20.4359 46 21.2579 46 22.0969C46 22.9359 45.7655 23.7579 45.3233 24.4687C44.8812 25.1796 44.2493 25.7506 43.5 26.1163C42.5433 30.6124 40.0856 34.6419 36.5369 37.5325C32.9882 40.4231 28.5631 42 24 42C19.4369 42 15.0118 40.4231 11.4631 37.5325C7.91437 34.6419 5.45665 30.6124 4.50003 26.1163C3.75074 25.7506 3.11882 25.1796 2.67667 24.4687C2.23451 23.7579 2 22.9359 2 22.0969C2 21.2579 2.23451 20.4359 2.67667 19.7251C3.11882 19.0142 3.75074 18.4432 4.50003 18.0775C5.418 13.5457 7.85911 9.47163 11.4115 6.54272C14.9639 3.61381 19.4101 2.00934 24 2C28.4318 2 31.7557 4.45629 31.7557 7.58247C31.7557 10.7087 29.7614 13.1649 27.3239 13.1649C25.5511 13.1649 24 12.2718 24 10.932" stroke="black" stroke-width="2.5" stroke-linecap="round" stroke-linejoin="round"/>
</svg>
