<svg width="48" height="44" viewBox="0 0 48 44" fill="none" xmlns="http://www.w3.org/2000/svg">
<path opacity="0.5" d="M24 24.2222H24.022M32.8 10.8889V6.44444C32.8 5.2657 32.3364 4.13524 31.5113 3.30175C30.6861 2.46825 29.567 2 28.4 2H19.6C18.433 2 17.3139 2.46825 16.4887 3.30175C15.6636 4.13524 15.2 5.2657 15.2 6.44444V10.8889M46 26.4444C39.4721 30.7977 31.8222 33.1184 24 33.1184C16.1778 33.1184 8.52786 30.7977 2 26.4444M6.4 10.8889H41.6C44.0301 10.8889 46 12.8787 46 15.3333V37.5556C46 40.0102 44.0301 42 41.6 42H6.4C3.96995 42 2 40.0102 2 37.5556V15.3333C2 12.8787 3.96995 10.8889 6.4 10.8889Z" stroke="black" stroke-width="2.5" stroke-linecap="round" stroke-linejoin="round"/>
</svg>
