<svg width="52" height="16" viewBox="0 0 52 16" fill="none" xmlns="http://www.w3.org/2000/svg">
<path d="M1 7C0.447715 7 0 7.44772 0 8C0 8.55228 0.447715 9 1 9V7ZM51.2071 8.70711C51.5976 8.31658 51.5976 7.68342 51.2071 7.29289L44.8431 0.928932C44.4526 0.538408 43.8195 0.538408 43.4289 0.928932C43.0384 1.31946 43.0384 1.95262 43.4289 2.34315L49.0858 8L43.4289 13.6569C43.0384 14.0474 43.0384 14.6805 43.4289 15.0711C43.8195 15.4616 44.4526 15.4616 44.8431 15.0711L51.2071 8.70711ZM1 9H50.5V7H1V9Z" fill="#15B167"/>
</svg>
