<svg width="24" height="24" viewBox="0 0 24 24" fill="none" xmlns="http://www.w3.org/2000/svg">
<g clip-path="url(#clip0_314_503)">
<path d="M19.7201 3.37255C18.6568 2.29889 17.3903 1.44773 15.9945 0.868708C14.5987 0.289686 13.1016 -0.00559781 11.5905 8.03609e-05C5.2588 8.03609e-05 0.0985934 5.15883 0.0927938 11.492C0.0927938 13.5204 0.623458 15.4937 1.62534 17.2409L0 23.1985L6.09539 21.6007C7.78088 22.5203 9.67049 23.0014 11.5905 22.9999H11.5963C17.9295 22.9999 23.0882 17.8411 23.094 11.5022C23.0953 9.99145 22.7978 8.4954 22.2185 7.10017C21.6392 5.70494 20.7911 4.43808 19.7201 3.37255Z" fill="#15B167"/>
<path d="M16.8764 13.2842C16.5908 13.1406 15.18 12.4461 14.9147 12.3475C14.6508 12.2533 14.4579 12.204 14.2695 12.4911C14.0766 12.7767 13.5257 13.4277 13.3604 13.6147C13.1951 13.8076 13.024 13.8293 12.7369 13.6872C12.4513 13.5423 11.5248 13.2407 10.4287 12.2591C9.57323 11.4979 9.00052 10.5555 8.82943 10.2698C8.66414 9.98274 8.81348 9.82905 8.95702 9.68551C9.08316 9.55792 9.24265 9.34913 9.38619 9.18384C9.53118 9.01855 9.57903 8.89676 9.67327 8.70538C9.76752 8.51109 9.72257 8.3458 9.65152 8.20226C9.57903 8.05872 9.00632 6.64217 8.76418 6.0709C8.5322 5.50689 8.29586 5.58519 8.11898 5.57794C7.95369 5.56779 7.76085 5.56779 7.56801 5.56779C7.42241 5.57149 7.27913 5.60521 7.14715 5.66684C7.01518 5.72846 6.89734 5.81666 6.80102 5.92591C6.53713 6.21299 5.79913 6.9075 5.79913 8.32405C5.79913 9.74061 6.82856 11.1021 6.97355 11.2949C7.11564 11.4877 8.99472 14.3861 11.8786 15.633C12.56 15.9302 13.0965 16.1057 13.5155 16.2391C14.2042 16.4595 14.8262 16.4261 15.3221 16.3551C15.8731 16.271 17.0199 15.6591 17.2621 14.9878C17.4998 14.315 17.4998 13.7409 17.4274 13.6205C17.3563 13.4988 17.1635 13.4277 16.8764 13.2842Z" fill="white"/>
</g>
<defs>
<clipPath id="clip0_314_503">
<rect width="23.1984" height="23.1984" fill="white"/>
</clipPath>
</defs>
</svg>
