<svg width="1240" height="568" viewBox="0 0 1240 568" fill="none" xmlns="http://www.w3.org/2000/svg">
<mask id="mask0_147_62" style="mask-type:alpha" maskUnits="userSpaceOnUse" x="0" y="0" width="1240" height="568">
<path d="M1240 538C1240 554.569 1226.57 568 1210 568H30C13.4314 568 0 554.569 0 538V115C0 98.4315 13.4315 85 30 85H390C406.569 85 420 71.5685 420 55V30C420 13.4315 433.431 0 450 0H1210C1226.57 0 1240 13.4315 1240 30V538Z" fill="#DDF3DE"/>
</mask>
<g mask="url(#mask0_147_62)">
<g opacity="0.8">
<g filter="url(#filter0_f_147_62)">
<ellipse cx="1010.75" cy="282.875" rx="209.892" ry="274.431" transform="rotate(137.039 1010.75 282.875)" fill="url(#paint0_linear_147_62)"/>
</g>
<g filter="url(#filter1_f_147_62)">
<ellipse cx="787.462" cy="405.697" rx="199.359" ry="274.431" transform="rotate(-88.5278 787.462 405.697)" fill="url(#paint1_linear_147_62)"/>
</g>
<g opacity="0.59" filter="url(#filter2_f_147_62)">
<ellipse cx="974.92" cy="499.393" rx="199.359" ry="274.431" transform="rotate(-43.3719 974.92 499.393)" fill="url(#paint2_linear_147_62)"/>
</g>
</g>
</g>
<defs>
<filter id="filter0_f_147_62" x="634.931" y="-97.5112" width="751.646" height="760.772" filterUnits="userSpaceOnUse" color-interpolation-filters="sRGB">
<feFlood flood-opacity="0" result="BackgroundImageFix"/>
<feBlend mode="normal" in="SourceGraphic" in2="BackgroundImageFix" result="shape"/>
<feGaussianBlur stdDeviation="66.9" result="effect1_foregroundBlur_147_62"/>
</filter>
<filter id="filter1_f_147_62" x="379.273" y="72.4771" width="816.379" height="666.44" filterUnits="userSpaceOnUse" color-interpolation-filters="sRGB">
<feFlood flood-opacity="0" result="BackgroundImageFix"/>
<feBlend mode="normal" in="SourceGraphic" in2="BackgroundImageFix" result="shape"/>
<feGaussianBlur stdDeviation="66.9" result="effect1_foregroundBlur_147_62"/>
</filter>
<filter id="filter2_f_147_62" x="603.373" y="123.623" width="743.094" height="751.539" filterUnits="userSpaceOnUse" color-interpolation-filters="sRGB">
<feFlood flood-opacity="0" result="BackgroundImageFix"/>
<feBlend mode="normal" in="SourceGraphic" in2="BackgroundImageFix" result="shape"/>
<feGaussianBlur stdDeviation="66.9" result="effect1_foregroundBlur_147_62"/>
</filter>
<linearGradient id="paint0_linear_147_62" x1="971.53" y1="44.6506" x2="1008.22" y2="557.488" gradientUnits="userSpaceOnUse">
<stop stop-color="#B4E57A" stop-opacity="0.5"/>
<stop offset="1" stop-color="#15B167"/>
</linearGradient>
<linearGradient id="paint1_linear_147_62" x1="750.207" y1="167.472" x2="788.811" y2="680.027" gradientUnits="userSpaceOnUse">
<stop stop-color="#DDF3DE"/>
<stop offset="1" stop-color="#15B167"/>
</linearGradient>
<linearGradient id="paint2_linear_147_62" x1="937.665" y1="261.168" x2="976.269" y2="773.723" gradientUnits="userSpaceOnUse">
<stop stop-color="#DDF3DE"/>
<stop offset="1" stop-color="#15B167"/>
</linearGradient>
</defs>
</svg>
